<?xml version="1.0" encoding="utf-8"?>
<!-- Generator: Adobe Illustrator 26.5.0, SVG Export Plug-In . SVG Version: 6.00 Build 0)  -->
<svg version="1.1" id="Layer_1" xmlns="http://www.w3.org/2000/svg" xmlns:xlink="http://www.w3.org/1999/xlink" x="0px" y="0px"
	 viewBox="0 0 100 100" style="enable-background:new 0 0 100 100;" xml:space="preserve">
<style type="text/css">
	.st0{fill:#FFFFFF;}
	.st1{fill:#6D1E29;}
	.st2{fill:#EDB3AD;}
	.st3{fill:#ACDEE0;}
	.st4{fill:#54C4C8;}
	.st5{fill:#F05D87;}
	.st6{fill:#E44877;}
	.st7{fill:#F9BFD0;}
	.st8{fill:#A27B47;}
	.st9{fill:#FBD7C2;}
	.st10{fill:#D18B5F;}
	.st11{fill:#E78F30;}
	.st12{fill:#F5A54F;}
	.st13{fill:#FAC184;}
	.st14{fill:#805849;}
</style>
<g>
	<g>
		<g>
			<g>
				<path class="st0" d="M98.47,50.05c0,26.55-21.52,48.07-48.07,48.07c-26.55,0-48.07-21.52-48.07-48.07S23.86,1.98,50.4,1.98
					C76.95,1.98,98.47,23.5,98.47,50.05z"/>
			</g>
			<g>
				<path class="st1" d="M94.59,50.05c0,24.4-19.78,44.18-44.19,44.18C26,94.23,6.22,74.45,6.22,50.05S26,5.87,50.4,5.87
					C74.81,5.87,94.59,25.65,94.59,50.05z"/>
			</g>
			<g>
				<path class="st0" d="M90.42,50.05c0,22.1-17.91,40.01-40.01,40.01c-22.1,0-40.01-17.92-40.01-40.01
					c0-22.1,17.91-40.01,40.01-40.01C72.5,10.04,90.42,27.95,90.42,50.05z"/>
			</g>
			<g>
				<path class="st2" d="M72.6,50.05c0,12.26-9.94,22.2-22.2,22.2c-12.26,0-22.2-9.94-22.2-22.2c0-12.26,9.94-22.2,22.2-22.2
					C62.66,27.85,72.6,37.79,72.6,50.05z"/>
			</g>
		</g>
	</g>
	<g>
		<g>
			<g>
				<path class="st3" d="M50.08,18.58c0,0,0.08-6.04-4.2-4.29c-4.27,1.75-0.16,3.77-2.56,4.81c-2.4,1.04-1.99-3.78-5.02,0.54
					c-3.04,4.32,0.24,4.61-0.46,7.83c-0.7,3.21-5.45-3.82-8.05,0.51c-2.6,4.33-5.95,9.21,0.21,11.13c6.17,1.93,6.73,2.07,4.48,3.71
					c-2.25,1.64-3.31,4.92-0.75,5.78c2.56,0.87,5.18-2.13,5.35,2.41c0.17,4.54-1.96,5.34,2.76,6.27c4.72,0.93,3.15-1.54,6.34-2.66
					c3.18-1.11,7.97-4.08,8.04-10.56c0.07-6.48,1.25-16.19,1.25-16.19L50.08,18.58z"/>
			</g>
			<g>
				<path class="st4" d="M52.22,50.79c1.81-1.77,2.75-4.04,2.78-6.73c0.06-5.7,0.96-13.71,1.2-15.82L48.85,19l0.01-0.44
					c0-0.82-0.24-2.69-1.02-3.22c-0.32-0.22-0.82-0.19-1.49,0.08c-0.66,0.27-0.98,0.51-1.13,0.66c-0.19,0.19-0.22,0.24-0.04,0.92
					c0.16,0.61,0.47,1.73-0.45,2.63c-0.24,0.23-0.54,0.42-0.91,0.59c-1.78,0.77-2.84-0.38-3.35-0.93c-0.04-0.05-0.1-0.1-0.15-0.16
					c-0.04,0.03-0.08,0.07-0.14,0.12c-0.25,0.24-0.54,0.61-0.88,1.09c-1.45,2.07-1.16,2.75-0.73,3.79c0.37,0.87,0.82,1.95,0.46,3.6
					c-0.12,0.55-0.34,0.97-0.66,1.29c-1.13,1.11-2.65,0.3-3.87-0.34c-1.74-0.92-2.62-1.22-3.27-0.58c-0.14,0.13-0.27,0.31-0.39,0.52
					l-0.4,0.66c-1.5,2.47-3.19,5.27-2.58,6.9c0.28,0.75,1.13,1.34,2.51,1.78l0.29,0.09c4.65,1.46,5.91,1.85,6.21,3.12
					c0.15,0.64-0.07,1.26-0.67,1.85c-0.23,0.22-0.52,0.46-0.99,0.8c-0.18,0.13-0.36,0.28-0.52,0.44c-0.96,0.94-1.33,2.02-1.19,2.61
					c0.04,0.19,0.16,0.43,0.63,0.59c0.6,0.2,1.28,0.07,2-0.07c0.97-0.18,2.07-0.4,3,0.34c0.75,0.6,1.12,1.6,1.18,3.25
					c0.05,1.44-0.11,2.54-0.23,3.34c-0.07,0.44-0.15,1-0.1,1.14c0.04,0.04,0.38,0.29,2.1,0.63c2.01,0.4,2.37,0.04,2.55-0.12
					c0.13-0.13,0.25-0.28,0.37-0.44c0.2-0.25,0.42-0.52,0.68-0.78c0.57-0.56,1.26-0.97,2.09-1.26
					C48.97,53.07,50.72,52.26,52.22,50.79z"/>
			</g>
			<g>
				<g>
					<path class="st4" d="M43.81,20.23c0.37-0.16,0.67-0.35,0.91-0.59c0.15-0.15,0.26-0.3,0.35-0.46l10.83,11.8
						c-0.02,0.18-0.04,0.36-0.05,0.54L43.48,20.33C43.59,20.3,43.69,20.28,43.81,20.23z"/>
				</g>
				<g>
					<path class="st4" d="M39.03,27.74c0.18-0.82,0.16-1.51,0.04-2.09l16.3,11.01c-0.01,0.18-0.03,0.36-0.04,0.54l-16.56-8.73
						C38.89,28.25,38.97,28.01,39.03,27.74z"/>
				</g>
				<g>
					<path class="st4" d="M30.65,38.04l-0.29-0.09c-1.38-0.43-2.22-1.03-2.51-1.78c-0.4-1.06,0.17-2.61,1.04-4.24l26.19,9.37
						c-0.01,0.28-0.02,0.56-0.03,0.84l-18.8-1.95C35.48,39.56,33.89,39.06,30.65,38.04z"/>
				</g>
				<g>
					<path class="st4" d="M40.3,50.97c-0.01-0.32-0.05-0.59-0.08-0.86l14.31-3.07c-0.08,0.24-0.16,0.48-0.25,0.71l-14.01,4.83
						C40.3,52.1,40.32,51.58,40.3,50.97z"/>
				</g>
				<g>
					<path class="st4" d="M34.12,47.45c-0.47-0.16-0.59-0.4-0.63-0.59c-0.11-0.5,0.16-1.35,0.82-2.17l20.69-0.54
						c0,0.11-0.01,0.22-0.02,0.32l-20.68,3.01C34.23,47.47,34.17,47.47,34.12,47.45z"/>
				</g>
			</g>
			<g>
				<path class="st4" d="M39.07,25.64c0,0-1.97-3.59-0.87-4.44c1.1-0.85,17.3,13.96,17.3,13.96l-0.12,1.49L39.07,25.64z"/>
			</g>
			<g>
				<polygon class="st4" points="55.24,38.53 31.23,28.1 30.43,29.28 55.16,39.7 				"/>
			</g>
			<g>
				<polygon class="st4" points="53.47,49.28 39.98,55.46 40.07,54.32 				"/>
			</g>
		</g>
		<g>
			<g>
				<path class="st3" d="M41.04,18.38c0,0-5.62-5.6,0-7.88c5.62-2.28,3.61,3.4,6.83,2.16c3.21-1.23-1.61-5.38,5.22-4.11
					c6.83,1.27,4.02,4.55,7.63,6.93c3.61,2.37,1.61-8.6,8.03-6.93c6.43,1.67,14.06,3.18,10.04,10.66c-4.02,7.48-4.42,8.13-0.8,7.6
					c3.61-0.52,7.63,1.58,6.02,4.74c-1.61,3.17-6.83,2.76-2.81,7.18c4.02,4.42,6.75,3.21,3.17,8.43c-3.58,5.22-4.38,1.45-8.4,3.33
					c-4.02,1.89-11.24,3.49-17.27-2.53c-6.02-6.02-16.07-14.06-16.07-14.06L41.04,18.38z"/>
			</g>
			<g>
				<path class="st4" d="M68.65,50.61c-3.34,0-6.3-1.27-8.8-3.77c-5.3-5.3-13.51-12-15.67-13.75l-1.6-15.44l-0.41-0.4
					c-0.76-0.76-2.25-2.74-2-3.96c0.1-0.5,0.6-0.94,1.47-1.29c0.87-0.35,1.39-0.43,1.67-0.43c0.35,0,0.43,0.03,0.89,0.83
					c0.4,0.72,1.15,2.06,2.85,2.06c0.44,0,0.9-0.09,1.39-0.28c2.38-0.91,2.32-2.96,2.29-3.95c0-0.08-0.01-0.19-0.01-0.28
					c0.07,0,0.15-0.01,0.25-0.01c0.46,0,1.07,0.07,1.83,0.21c3.26,0.61,3.62,1.52,4.17,2.89c0.46,1.15,1.03,2.59,2.87,3.8
					c0.62,0.4,1.21,0.6,1.8,0.6c2.08,0,2.77-2.16,3.32-3.89c0.79-2.46,1.34-3.55,2.54-3.55c0.25,0,0.54,0.04,0.85,0.12l0.98,0.25
					c3.68,0.94,7.84,2.01,8.77,4.12c0.42,0.96,0.18,2.3-0.72,3.97l-0.19,0.35c-3.04,5.65-3.85,7.17-2.97,8.65
					c0.44,0.74,1.23,1.11,2.33,1.11c0.42,0,0.92-0.05,1.67-0.16c0.3-0.04,0.59-0.06,0.89-0.06c1.77,0,3.11,0.68,3.52,1.36
					c0.13,0.22,0.25,0.54-0.05,1.13c-0.38,0.74-1.14,1.24-1.94,1.77c-1.08,0.72-2.31,1.53-2.51,3.09c-0.16,1.25,0.42,2.53,1.88,4.13
					c1.27,1.4,2.44,2.29,3.29,2.93c0.47,0.36,1.05,0.8,1.14,0.98c0,0.08-0.08,0.62-1.39,2.53c-1.52,2.22-2.19,2.22-2.51,2.22
					c-0.25,0-0.49-0.03-0.75-0.07c-0.42-0.05-0.87-0.1-1.36-0.1c-1.05,0-2.07,0.24-3.13,0.73C73.79,49.76,71.4,50.61,68.65,50.61z"
					/>
			</g>
			<g>
				<g>
					<path class="st4" d="M48.45,14.16c-0.5,0.19-0.96,0.28-1.39,0.28c-0.28,0-0.52-0.04-0.75-0.11l0.68,21.04
						c0.18,0.15,0.36,0.3,0.55,0.46l1.32-21.88C48.72,14.02,48.6,14.1,48.45,14.16z"/>
				</g>
				<g>
					<path class="st4" d="M59.84,16.82c-0.93-0.61-1.53-1.27-1.96-1.93l-5.2,25.33c0.18,0.16,0.36,0.31,0.54,0.47l7.53-23.42
						C60.45,17.17,60.15,17.02,59.84,16.82z"/>
				</g>
				<g>
					<path class="st4" d="M77.19,18.8l0.19-0.35c0.9-1.68,1.14-3.01,0.72-3.97c-0.6-1.36-2.56-2.29-4.87-3.03l-16,32.88
						c0.27,0.25,0.54,0.51,0.8,0.76l15.87-19.12C74.05,24.66,75.08,22.73,77.19,18.8z"/>
				</g>
				<g>
					<path class="st4" d="M80.02,39.82c-0.28-0.31-0.5-0.59-0.72-0.88L63.03,49.22c0.29,0.16,0.59,0.31,0.89,0.44l17.6-8.35
						C81.05,40.88,80.55,40.4,80.02,39.82z"/>
				</g>
				<g>
					<path class="st4" d="M82.59,30.83c0.3-0.59,0.18-0.92,0.05-1.13c-0.35-0.57-1.39-1.12-2.76-1.29L59.94,46.92
						c0.1,0.1,0.21,0.19,0.31,0.29l22.2-16.19C82.5,30.95,82.55,30.89,82.59,30.83z"/>
				</g>
			</g>
			<g>
				<path class="st4" d="M57.88,14.89c0,0-1.46-5.19-3.27-4.97c-1.81,0.21-3.41,29.02-3.41,29.02l1.48,1.29L57.88,14.89z"/>
			</g>
			<g>
				<polygon class="st4" points="54.54,41.86 67.5,9.98 69.33,10.36 55.68,42.89 				"/>
			</g>
			<g>
				<polygon class="st4" points="66.09,50.34 84.44,43.73 83.3,42.75 				"/>
			</g>
		</g>
		<g>
			<g>
				<path class="st3" d="M24.97,38.53c0,0-3.05-6.13-6.45-2.15c-3.4,3.98,1.79,3.88-0.09,6.18c-1.88,2.29-3.96-2.78-4.79,3.15
					c-0.82,5.94,2.63,4.53,3.59,8.14c0.96,3.61-7.48-1.03-7.86,4.68c-0.38,5.71-1.24,12.37,5.98,11.13c7.22-1.24,7.86-1.4,6.44,1.42
					c-1.41,2.82-0.79,6.68,2.24,6.22c3.03-0.45,4.13-4.83,6.64-0.34c2.52,4.49,0.79,6.4,6.04,4.9c5.25-1.5,2.38-3.19,5.02-5.96
					c2.64-2.77,5.93-8.25,2.64-14.83c-3.29-6.57-7.12-16.99-7.12-16.99L24.97,38.53z"/>
			</g>
			<g>
				<path class="st4" d="M43.82,69.92c0.91-2.73,0.68-5.5-0.68-8.23C40.24,55.9,37,47.36,36.16,45.11l-12.2-5.52l-0.22-0.44
					c-0.42-0.83-1.63-2.59-2.7-2.72c-0.44-0.05-0.93,0.23-1.46,0.85c-0.53,0.62-0.73,1.02-0.81,1.25c-0.1,0.29-0.1,0.36,0.44,0.95
					c0.48,0.53,1.37,1.51,0.9,2.89c-0.12,0.36-0.32,0.71-0.61,1.06c-1.4,1.7-3.06,1.09-3.86,0.79c-0.07-0.02-0.15-0.05-0.23-0.08
					c-0.02,0.05-0.05,0.12-0.07,0.2c-0.12,0.37-0.23,0.89-0.32,1.55c-0.39,2.84,0.25,3.38,1.23,4.2c0.82,0.69,1.84,1.55,2.33,3.39
					c0.17,0.62,0.17,1.15,0,1.64c-0.57,1.7-2.52,1.68-4.09,1.66c-2.22-0.03-3.27,0.13-3.6,1.11c-0.07,0.2-0.11,0.45-0.13,0.73
					l-0.06,0.87c-0.23,3.27-0.49,6.97,0.97,8.3c0.67,0.61,1.83,0.77,3.45,0.49l0.34-0.06c5.45-0.94,6.92-1.2,7.88-0.07
					c0.49,0.56,0.58,1.31,0.28,2.21c-0.11,0.34-0.29,0.73-0.58,1.32c-0.12,0.23-0.21,0.47-0.3,0.71c-0.48,1.45-0.29,2.73,0.15,3.25
					c0.14,0.17,0.38,0.35,0.94,0.27c0.71-0.11,1.33-0.59,1.98-1.11c0.88-0.69,1.89-1.47,3.21-1.21c1.07,0.21,1.95,1.04,2.87,2.67
					c0.8,1.43,1.21,2.62,1.5,3.49c0.16,0.48,0.37,1.08,0.5,1.2c0.07,0.02,0.53,0.1,2.45-0.45c2.24-0.64,2.42-1.19,2.51-1.45
					c0.07-0.2,0.11-0.41,0.15-0.63c0.07-0.36,0.15-0.74,0.29-1.14c0.29-0.86,0.76-1.63,1.46-2.36
					C41.72,73.89,43.07,72.17,43.82,69.92z"/>
			</g>
			<g>
				<g>
					<path class="st4" d="M19.5,43.43c0.29-0.36,0.49-0.7,0.61-1.06c0.08-0.23,0.1-0.44,0.12-0.64l17.04,6.3
						c0.07,0.19,0.15,0.38,0.23,0.58l-18.27-4.89C19.32,43.62,19.41,43.55,19.5,43.43z"/>
				</g>
				<g>
					<path class="st4" d="M18.57,53.49c-0.25-0.92-0.62-1.6-1.04-2.13l22.16,2.66c0.08,0.19,0.16,0.38,0.24,0.57l-21.23-0.23
						C18.69,54.08,18.65,53.8,18.57,53.49z"/>
				</g>
				<g>
					<path class="st4" d="M15.45,68.23l-0.34,0.06c-1.62,0.28-2.78,0.11-3.45-0.49c-0.95-0.86-1.17-2.72-1.15-4.81l31.28-4.12
						c0.13,0.29,0.27,0.58,0.4,0.86L22.21,67.5C21.1,67.25,19.24,67.57,15.45,68.23z"/>
				</g>
				<g>
					<path class="st4" d="M31.88,76.28c-0.18-0.31-0.35-0.57-0.52-0.82l12.85-10.51c0.05,0.28,0.09,0.57,0.12,0.85L32.69,77.92
						C32.47,77.42,32.22,76.87,31.88,76.28z"/>
				</g>
				<g>
					<path class="st4" d="M23.82,75.93c-0.57,0.08-0.8-0.1-0.94-0.27c-0.37-0.44-0.54-1.45-0.3-2.61l20.59-11.26
						c0.05,0.11,0.1,0.22,0.15,0.34L24.02,75.87C23.95,75.89,23.89,75.92,23.82,75.93z"/>
				</g>
			</g>
			<g>
				<path class="st4" d="M17.52,51.35c0,0-3.84-2.61-3.18-4.03c0.67-1.42,24.68,5.13,24.68,5.13l0.65,1.56L17.52,51.35z"/>
			</g>
			<g>
				<polygon class="st4" points="40.51,55.98 10.88,57.89 10.69,59.49 41.04,57.2 				"/>
			</g>
			<g>
				<polygon class="st4" points="44.3,67.75 33.88,80.97 33.39,79.77 				"/>
			</g>
		</g>
		<g>
			<g>
				<path class="st4" d="M53.74,34.8c0,0-0.6-6.01-4.65-3.79c-4.04,2.22,0.27,3.76-2,5.07c-2.27,1.3-2.4-3.53-4.93,1.11
					c-2.53,4.64,0.76,4.56,0.42,7.83c-0.33,3.27-5.84-3.18-7.94,1.41c-2.1,4.59-4.88,9.82,1.46,11.04c6.34,1.22,6.92,1.3,4.87,3.18
					c-2.05,1.88-2.73,5.26-0.1,5.83c2.64,0.57,4.91-2.7,5.59,1.79c0.68,4.49-1.35,5.53,3.45,5.92c4.8,0.4,2.96-1.89,6-3.35
					c3.04-1.46,7.46-4.96,6.8-11.4c-0.66-6.45-0.58-16.23-0.58-16.23L53.74,34.8z"/>
			</g>
			<g>
				<path class="st4" d="M59.49,66.56c1.6-1.97,2.28-4.33,2-7c-0.58-5.67-0.59-13.73-0.59-15.85l-8.34-8.36l-0.04-0.43
					c-0.08-0.81-0.53-2.64-1.38-3.08c-0.35-0.18-0.84-0.1-1.47,0.25c-0.63,0.34-0.92,0.61-1.05,0.78c-0.17,0.21-0.19,0.27,0.07,0.92
					c0.23,0.58,0.66,1.67-0.16,2.67c-0.21,0.26-0.49,0.48-0.84,0.69c-1.68,0.97-2.86-0.05-3.43-0.55c-0.05-0.04-0.11-0.09-0.16-0.14
					c-0.04,0.04-0.08,0.08-0.12,0.14c-0.22,0.27-0.47,0.67-0.75,1.18c-1.21,2.22-0.85,2.87-0.3,3.85c0.46,0.82,1.03,1.85,0.86,3.52
					c-0.06,0.56-0.22,1-0.51,1.35c-1,1.23-2.6,0.6-3.89,0.09c-1.83-0.72-2.74-0.92-3.31-0.21c-0.12,0.15-0.23,0.33-0.34,0.56
					l-0.32,0.7c-1.21,2.62-2.58,5.6-1.78,7.15c0.36,0.71,1.27,1.21,2.69,1.48l0.3,0.06c4.79,0.92,6.08,1.17,6.52,2.4
					c0.22,0.62,0.07,1.26-0.46,1.91c-0.2,0.25-0.47,0.52-0.89,0.91c-0.17,0.15-0.32,0.32-0.47,0.5c-0.85,1.04-1.09,2.16-0.89,2.73
					c0.06,0.18,0.2,0.41,0.69,0.51c0.62,0.13,1.28-0.07,1.98-0.29c0.94-0.3,2.01-0.63,3.02,0c0.82,0.51,1.29,1.47,1.53,3.1
					c0.22,1.42,0.18,2.54,0.15,3.35c-0.02,0.45-0.03,1,0.03,1.15c0.05,0.04,0.41,0.25,2.16,0.39c2.04,0.17,2.36-0.22,2.52-0.41
					c0.12-0.14,0.22-0.31,0.32-0.47c0.17-0.27,0.36-0.56,0.59-0.85c0.51-0.62,1.14-1.11,1.94-1.49
					C56.53,69.19,58.17,68.19,59.49,66.56z"/>
			</g>
			<g>
				<g>
					<path class="st4" d="M47.7,37.14c0.35-0.2,0.63-0.43,0.84-0.69c0.13-0.16,0.22-0.33,0.3-0.49l12.09,10.51c0,0.18,0,0.36,0,0.54
						l-13.54-9.73C47.49,37.23,47.59,37.2,47.7,37.14z"/>
				</g>
				<g>
					<path class="st4" d="M43.8,45.14c0.08-0.84-0.02-1.52-0.2-2.08l17.44,9.1c0.01,0.18,0.01,0.36,0.02,0.54l-17.43-6.81
						C43.71,45.67,43.77,45.42,43.8,45.14z"/>
				</g>
				<g>
					<path class="st4" d="M36.63,56.32l-0.3-0.06c-1.42-0.27-2.33-0.77-2.69-1.48c-0.52-1.01-0.12-2.61,0.55-4.33l27.08,6.36
						c0.02,0.28,0.04,0.56,0.06,0.84l-18.9,0.18C41.59,57.28,39.96,56.97,36.63,56.32z"/>
				</g>
				<g>
					<path class="st4" d="M47.67,68.08c-0.05-0.31-0.11-0.58-0.18-0.84l13.88-4.66c-0.05,0.25-0.1,0.5-0.17,0.74l-13.38,6.38
						C47.8,69.21,47.76,68.68,47.67,68.08z"/>
				</g>
				<g>
					<path class="st4" d="M41.13,65.28c-0.49-0.11-0.63-0.33-0.69-0.51c-0.17-0.48,0-1.36,0.57-2.25l20.49-2.87
						c0.01,0.11,0.01,0.22,0.02,0.32L41.31,65.3C41.25,65.29,41.19,65.29,41.13,65.28z"/>
				</g>
			</g>
			<g>
				<path class="st4" d="M43.6,43.05c0,0-2.36-3.35-1.36-4.32c0.99-0.97,18.76,11.93,18.76,11.93l0.05,1.49L43.6,43.05z"/>
			</g>
			<g>
				<polygon class="st4" points="61.11,54.04 36.08,46.37 35.42,47.63 61.17,55.21 				"/>
			</g>
			<g>
				<polygon class="st4" points="60.57,64.92 47.85,72.58 47.82,71.43 				"/>
			</g>
		</g>
		<g>
			<g>
				<path class="st5" d="M36.42,37.88c-5.57-0.79-10.73,3.08-11.52,8.65l20.17,2.88C45.86,43.84,41.98,38.68,36.42,37.88z"/>
			</g>
			<g>
				<path class="st6" d="M27.61,44.83c0.12-0.89,0.7-2.54,1.62-3.14c3.79-3.34,9.35-2.9,13.02,1.86c0.71,0.87,1.19,2.91,1.07,3.8
					l0,0c-0.13,0.89-1.55,1.01-2.26,0.13c-3.24-3.95-7.49-4.62-11.72-1.87C28.42,46.21,27.48,45.72,27.61,44.83L27.61,44.83z"/>
			</g>
			<g>
				<path class="st7" d="M35.88,43.17c1.63-1.64,0.3-2.14,0.3-2.14S34.77,41.14,35.88,43.17z"/>
			</g>
			<g>
				<path class="st7" d="M34.25,42.89c1.06-2.06-0.35-2.14-0.35-2.14S32.58,41.29,34.25,42.89z"/>
			</g>
			<g>
				<path class="st7" d="M32.1,43.19c1.51-1.76,0.16-2.16,0.16-2.16S30.85,41.23,32.1,43.19z"/>
			</g>
			<g>
				<path class="st7" d="M30.75,43.73c0.48-1.87-0.68-1.67-0.68-1.67S29.1,42.74,30.75,43.73z"/>
			</g>
			<g>
				<path class="st7" d="M28.9,45.1c0.92-1.32-0.04-1.5-0.04-1.5S27.91,43.84,28.9,45.1z"/>
			</g>
			<g>
				<path class="st7" d="M37.52,43.36c-0.44-2.27,0.94-1.95,0.94-1.95S39.57,42.28,37.52,43.36z"/>
			</g>
			<g>
				<path class="st7" d="M39.44,44.62c-0.96-2.11,0.45-2.12,0.45-2.12S41.18,43.1,39.44,44.62z"/>
			</g>
			<g>
				<path class="st7" d="M40.21,45.46c0.06-1.93,1.12-1.41,1.12-1.41S42.07,44.97,40.21,45.46z"/>
			</g>
			<g>
				<path class="st7" d="M41.6,46.91c-0.52-1.53,0.46-1.44,0.46-1.44S42.92,45.98,41.6,46.91z"/>
			</g>
		</g>
		<g>
			<g>
				<path class="st5" d="M44.61,79.3c5.56,3.02,12.51,0.96,15.52-4.6L40.02,63.78C37,69.33,39.06,76.28,44.61,79.3z"/>
			</g>
			<g>
				<path class="st6" d="M56.61,75.43c-0.48,0.89-1.73,2.41-2.94,2.68c-5.31,2.03-10.99-0.61-12.98-7.06
					c-0.41-1.19-0.12-3.53,0.37-4.42l0,0c0.48-0.88,2.02-0.45,2.43,0.75c1.86,5.43,6.08,7.8,11.61,6.56
					C56.29,73.67,57.1,74.55,56.61,75.43L56.61,75.43z"/>
			</g>
			<g>
				<path class="st7" d="M47.25,73.94c-2.36,1.09-1.16,2.14-1.16,2.14S47.62,76.52,47.25,73.94z"/>
			</g>
			<g>
				<path class="st7" d="M48.85,74.87c-1.92,1.75-0.46,2.39-0.46,2.39S49.98,77.22,48.85,74.87z"/>
			</g>
			<g>
				<path class="st7" d="M51.23,75.4c-2.27,1.26-1.01,2.22-1.01,2.22S51.78,77.95,51.23,75.4z"/>
			</g>
			<g>
				<path class="st7" d="M52.87,75.36c-1.24,1.78,0.06,2.03,0.06,2.03S54.22,77.06,52.87,75.36z"/>
			</g>
			<g>
				<path class="st7" d="M55.35,74.64c-1.49,1.03-0.54,1.6-0.54,1.6S55.9,76.36,55.35,74.64z"/>
			</g>
			<g>
				<path class="st7" d="M45.59,73.11c-0.42,2.56-1.75,1.68-1.75,1.68S43.02,73.44,45.59,73.11z"/>
			</g>
			<g>
				<path class="st7" d="M44.06,71.02c0.19,2.59-1.31,2.05-1.31,2.05S41.63,71.94,44.06,71.02z"/>
			</g>
			<g>
				<path class="st7" d="M43.59,69.83c-0.82,2.01-1.74,1.05-1.74,1.05S41.43,69.62,43.59,69.83z"/>
			</g>
			<g>
				<path class="st7" d="M42.69,67.75c-0.05,1.81-1.05,1.33-1.05,1.33S40.94,68.23,42.69,67.75z"/>
			</g>
		</g>
		<g>
			<g>
				<path class="st5" d="M62.87,65.08c5.56,3.02,12.51,0.96,15.52-4.59L58.28,49.56C55.26,55.11,57.32,62.07,62.87,65.08z"/>
			</g>
			<g>
				<path class="st6" d="M74.87,61.22c-0.48,0.89-1.73,2.41-2.94,2.67c-5.31,2.03-10.99-0.61-12.99-7.06
					c-0.41-1.2-0.12-3.54,0.37-4.42l0,0c0.48-0.89,2.02-0.46,2.43,0.74c1.86,5.43,6.08,7.8,11.61,6.56
					C74.55,59.45,75.36,60.33,74.87,61.22L74.87,61.22z"/>
			</g>
			<g>
				<path class="st7" d="M65.51,59.72c-2.36,1.09-1.16,2.14-1.16,2.14S65.89,62.3,65.51,59.72z"/>
			</g>
			<g>
				<path class="st7" d="M67.12,60.66c-1.92,1.75-0.47,2.39-0.47,2.39S68.24,63,67.12,60.66z"/>
			</g>
			<g>
				<path class="st7" d="M69.5,61.19c-2.27,1.26-1.01,2.22-1.01,2.22S70.04,63.73,69.5,61.19z"/>
			</g>
			<g>
				<path class="st7" d="M71.13,61.14c-1.24,1.78,0.06,2.03,0.06,2.03S72.48,62.84,71.13,61.14z"/>
			</g>
			<g>
				<path class="st7" d="M73.61,60.42c-1.49,1.02-0.54,1.6-0.54,1.6S74.17,62.14,73.61,60.42z"/>
			</g>
			<g>
				<path class="st7" d="M63.86,58.89c-0.42,2.56-1.75,1.69-1.75,1.69S61.28,59.22,63.86,58.89z"/>
			</g>
			<g>
				<path class="st7" d="M62.32,56.8c0.19,2.6-1.31,2.05-1.31,2.05S59.89,57.72,62.32,56.8z"/>
			</g>
			<g>
				<path class="st7" d="M61.86,55.61c-0.82,2.01-1.74,1.05-1.74,1.05S59.7,55.4,61.86,55.61z"/>
			</g>
			<g>
				<path class="st7" d="M60.95,53.54c-0.05,1.81-1.05,1.33-1.05,1.33S59.2,54.01,60.95,53.54z"/>
			</g>
		</g>
		<g>
			<g>
				<path class="st5" d="M55.07,33.21c-2.73,3.58-2.04,8.68,1.53,11.41l9.88-12.94C62.91,28.96,57.8,29.64,55.07,33.21z"/>
			</g>
			<g>
				<path class="st6" d="M56.47,42.07c-0.57-0.43-1.5-1.48-1.56-2.36c-0.85-3.95,1.63-7.65,6.38-8.35c0.89-0.16,2.5,0.3,3.07,0.74
					l0,0c0.57,0.44,0.1,1.47-0.79,1.62c-4.02,0.71-6.15,3.42-5.88,7.44C57.75,42.04,57.04,42.51,56.47,42.07L56.47,42.07z"/>
			</g>
			<g>
				<path class="st7" d="M58.55,35.65c-0.51-1.78-1.38-1.05-1.38-1.05S56.7,35.63,58.55,35.65z"/>
			</g>
			<g>
				<path class="st7" d="M57.72,36.68c-1.02-1.54-1.63-0.59-1.63-0.59S55.95,37.21,57.72,36.68z"/>
			</g>
			<g>
				<path class="st7" d="M57.09,38.29c-0.64-1.74-1.45-0.95-1.45-0.95S55.24,38.4,57.09,38.29z"/>
			</g>
			<g>
				<path class="st7" d="M56.94,39.44c-1.12-1.06-1.43-0.18-1.43-0.18S55.6,40.21,56.94,39.44z"/>
			</g>
			<g>
				<path class="st7" d="M57.17,41.27c-0.56-1.16-1.07-0.56-1.07-0.56S55.9,41.47,57.17,41.27z"/>
			</g>
			<g>
				<path class="st7" d="M59.32,34.58c-1.75-0.58-1-1.42-1-1.42S59.37,32.73,59.32,34.58z"/>
			</g>
			<g>
				<path class="st7" d="M60.95,33.73c-1.84-0.15-1.3-1.14-1.3-1.14S60.57,31.92,60.95,33.73z"/>
			</g>
			<g>
				<path class="st7" d="M61.84,33.53c-1.32-0.8-0.55-1.34-0.55-1.34S62.22,32.04,61.84,33.53z"/>
			</g>
			<g>
				<path class="st7" d="M63.39,33.13c-1.27-0.24-0.82-0.88-0.82-0.88S63.25,31.84,63.39,33.13z"/>
			</g>
		</g>
		<g>
			<g>
				<path class="st8" d="M57.55,48.73c0,0,5.27,0.51,4.62-2.27C61.52,43.68,53.97,41.64,57.55,48.73z"/>
			</g>
			<g>
				<path class="st9" d="M56.75,37.37l-4.37,16.32c0.6-0.01,1.35,0.03,2.26,0.26c3.63,0.91,3.34-2.5,3.04-4.31
					c-0.3-1.81-0.51-4.83,1.3-5.05c2.25-0.25,1.56,3.15,1.56,3.15s0.04-2.07-1.74-1.42c-1.78,0.65-0.48,3.3,1.52,3.85
					C62.3,50.71,69.03,40.61,56.75,37.37z"/>
			</g>
			<g>
				<g>
					<path class="st10" d="M58.04,48.3c-1.15-1-0.36-2.69-0.05-3.12c-0.09,0-0.19-0.01-0.3,0c-1.81,0.21-1.6,3.24-1.29,5.05
						c0.19,1.14,0.37,2.92-0.42,3.84C57.99,53.91,58.26,49.88,58.04,48.3z"/>
				</g>
				<g>
					<path class="st10" d="M56.75,37.37l-0.24,0.91c8.9,2.89,6.19,9.8,3.87,11.89C62.43,50.51,68.9,40.58,56.75,37.37z"/>
				</g>
			</g>
		</g>
		<g>
			<g>
				<path class="st8" d="M43.87,48.7c0,0-4.5,1.84-2.79,3.82C42.8,54.52,49.81,52.95,43.87,48.7z"/>
			</g>
			<g>
				<path class="st9" d="M49.38,57.61l-3.41-15.15c-0.49,0.26-1.11,0.56-1.95,0.76c-3.34,0.8-1.65,3.46-0.63,4.81
					c1.02,1.34,2.48,3.72,1.1,4.66c-1.72,1.17-2.61-1.89-2.61-1.89s0.85,1.7,2.02,0.41c1.17-1.29-1.02-2.9-2.88-2.49
					C39.16,49.12,38,60.22,49.38,57.61z"/>
			</g>
			<g>
				<g>
					<path class="st10" d="M43.66,49.27c1.36,0.32,1.44,2.03,1.38,2.51c0.08-0.04,0.16-0.07,0.24-0.13c1.38-0.95-0.08-3.32-1.1-4.66
						c-0.64-0.85-1.55-2.21-1.3-3.31C41.3,44.68,42.8,48.08,43.66,49.27z"/>
				</g>
				<g>
					<path class="st10" d="M49.38,57.61l-0.19-0.84c-8.48,1.45-9.23-5.34-8.23-8.03C39.14,49.35,38.11,60.2,49.38,57.61z"/>
				</g>
			</g>
		</g>
		<g>
			<g>
				<path class="st5" d="M46.08,52.6c-2.73,3.58-2.04,8.68,1.53,11.41l9.88-12.94C53.92,48.34,48.81,49.03,46.08,52.6z"/>
			</g>
			<g>
				<path class="st6" d="M47.48,61.46c-0.57-0.44-1.5-1.48-1.56-2.36c-0.85-3.95,1.63-7.65,6.38-8.35c0.88-0.16,2.5,0.3,3.07,0.74
					l0,0c0.57,0.43,0.1,1.47-0.79,1.62c-4.02,0.72-6.15,3.42-5.88,7.44C48.76,61.42,48.05,61.89,47.48,61.46L47.48,61.46z"/>
			</g>
			<g>
				<path class="st7" d="M49.56,55.04c-0.51-1.78-1.38-1.05-1.38-1.05S47.71,55.02,49.56,55.04z"/>
			</g>
			<g>
				<path class="st7" d="M48.72,56.06c-1.02-1.54-1.63-0.59-1.63-0.59S46.96,56.6,48.72,56.06z"/>
			</g>
			<g>
				<path class="st7" d="M48.09,57.68c-0.64-1.74-1.45-0.96-1.45-0.96S46.25,57.78,48.09,57.68z"/>
			</g>
			<g>
				<path class="st7" d="M47.95,58.83c-1.12-1.06-1.43-0.18-1.43-0.18S46.61,59.59,47.95,58.83z"/>
			</g>
			<g>
				<path class="st7" d="M48.18,60.65c-0.56-1.16-1.07-0.56-1.07-0.56S46.91,60.86,48.18,60.65z"/>
			</g>
			<g>
				<path class="st7" d="M50.33,53.97c-1.76-0.58-1-1.42-1-1.42S50.37,52.12,50.33,53.97z"/>
			</g>
			<g>
				<path class="st7" d="M51.96,53.12c-1.84-0.15-1.3-1.14-1.3-1.14S51.58,51.31,51.96,53.12z"/>
			</g>
			<g>
				<path class="st7" d="M52.84,52.92c-1.32-0.8-0.54-1.33-0.54-1.33S53.23,51.43,52.84,52.92z"/>
			</g>
			<g>
				<path class="st7" d="M54.4,52.51c-1.27-0.24-0.82-0.89-0.82-0.89S54.26,51.23,54.4,52.51z"/>
			</g>
		</g>
		<g>
			<path class="st1" d="M64.41,42.48c-2.98,0-5.4,2.42-5.4,5.4c0,2.98,2.41,5.4,5.4,5.4c2.98,0,5.4-2.42,5.4-5.4
				C69.81,44.89,67.39,42.48,64.41,42.48z M64.41,50.86c-1.65,0-2.98-1.34-2.98-2.99c0-1.65,1.34-2.98,2.98-2.98
				c1.65,0,2.98,1.34,2.98,2.98C67.39,49.52,66.06,50.86,64.41,50.86z"/>
		</g>
		<g>
			<path class="st1" d="M37.43,58.35c-2.92,0-5.29,2.37-5.29,5.29c0,2.92,2.36,5.29,5.29,5.29c2.92,0,5.29-2.37,5.29-5.29
				C42.72,60.72,40.35,58.35,37.43,58.35z M37.43,66.56c-1.61,0-2.92-1.31-2.92-2.93c0-1.61,1.31-2.92,2.92-2.92
				c1.62,0,2.92,1.31,2.92,2.92C40.35,65.25,39.04,66.56,37.43,66.56z"/>
		</g>
		<g>
			<path class="st1" d="M54.99,25.86c-2.92,0-5.28,2.37-5.28,5.29c0,2.92,2.36,5.29,5.28,5.29c2.92,0,5.29-2.37,5.29-5.29
				C60.28,28.22,57.91,25.86,54.99,25.86z M54.99,34.07c-1.61,0-2.92-1.31-2.92-2.92c0-1.61,1.31-2.92,2.92-2.92
				c1.62,0,2.92,1.31,2.92,2.92C57.91,32.76,56.61,34.07,54.99,34.07z"/>
		</g>
		<g>
			<g>
				<path class="st8" d="M38.39,49.94c0,0-4.71-1.23-4.52,1.39C34.05,53.95,40.6,56.9,38.39,49.94z"/>
			</g>
			<g>
				<path class="st9" d="M37.47,60.37l6.35-14.17c-0.55-0.08-1.22-0.22-2.01-0.56c-3.16-1.36-3.4,1.78-3.38,3.47
					c0.01,1.68-0.24,4.46-1.91,4.39c-2.08-0.09-0.96-3.08-0.96-3.08s-0.34,1.87,1.37,1.54c1.71-0.33,0.92-2.93-0.82-3.72
					C34.37,47.45,26.79,55.64,37.47,60.37z"/>
			</g>
			<g>
				<g>
					<path class="st10" d="M37.89,50.27c0.9,1.08-0.07,2.49-0.41,2.84c0.08,0.02,0.17,0.03,0.27,0.04c1.67,0.07,1.93-2.71,1.91-4.39
						c-0.01-1.07,0.08-2.7,0.94-3.43C38.75,45.18,37.91,48.8,37.89,50.27z"/>
				</g>
				<g>
					<path class="st10" d="M37.47,60.37l0.35-0.79c-7.66-3.92-4.19-9.8-1.77-11.36C34.22,47.62,26.9,55.69,37.47,60.37z"/>
				</g>
			</g>
		</g>
		<g>
			<g>
				<path class="st8" d="M73.29,55.42c0,0,4.45-2.87,2.21-4.65C73.27,49,66.08,52.08,73.29,55.42z"/>
			</g>
			<g>
				<path class="st9" d="M65.61,47.01l6.69,15.51c0.46-0.38,1.08-0.82,1.93-1.2c3.41-1.53,1.07-4.03-0.29-5.26
					c-1.36-1.23-3.4-3.47-2.11-4.77c1.6-1.59,3.17,1.5,3.17,1.5s-1.25-1.65-2.24-0.03c-0.99,1.61,1.67,2.89,3.58,2.08
					C78.24,54.03,77.25,41.93,65.61,47.01z"/>
			</g>
			<g>
				<g>
					<path class="st10" d="M73.4,54.78c-1.52-0.07-1.95-1.89-1.98-2.42c-0.08,0.05-0.15,0.11-0.23,0.19
						c-1.29,1.29,0.75,3.54,2.12,4.77c0.86,0.78,2.1,2.05,2.05,3.28C76.84,59.21,74.55,55.88,73.4,54.78z"/>
				</g>
				<g>
					<path class="st10" d="M65.61,47.01l0.37,0.86c8.77-3.25,10.94,3.85,10.41,6.93C78.22,53.78,77.14,41.98,65.61,47.01z"/>
				</g>
			</g>
		</g>
		<g>
			<g>
				<path class="st8" d="M67.89,69.45c0,0,2.21-3.57,0-4.09C65.69,64.85,61.59,69.51,67.89,69.45z"/>
			</g>
			<g>
				<path class="st9" d="M59.53,66.04l10.08,8.83c0.21-0.43,0.49-0.95,0.98-1.52c1.92-2.26-0.61-3.25-2.01-3.67
					c-1.39-0.42-3.62-1.33-3.14-2.69c0.61-1.69,2.79-0.01,2.79-0.01s-1.46-0.75-1.62,0.74c-0.16,1.5,2.18,1.5,3.27,0.27
					C70.97,66.76,66.13,58.43,59.53,66.04z"/>
			</g>
			<g>
				<g>
					<path class="st10" d="M67.76,68.95c-1.12,0.47-2.04-0.69-2.24-1.05c-0.04,0.06-0.07,0.13-0.1,0.21
						c-0.48,1.36,1.74,2.28,3.14,2.69c0.88,0.26,2.2,0.75,2.59,1.65C71.73,70.95,68.95,69.34,67.76,68.95z"/>
				</g>
				<g>
					<path class="st10" d="M59.53,66.04l0.56,0.49c5.17-5.32,9.14-0.97,9.82,1.41C70.87,66.59,66.07,58.5,59.53,66.04z"/>
				</g>
			</g>
		</g>
		<g>
			<g>
				<path class="st8" d="M51.31,36.31c0,0,4.45-2.87,2.21-4.65C51.29,29.89,44.1,32.97,51.31,36.31z"/>
			</g>
			<g>
				<path class="st9" d="M43.64,27.9l6.69,15.51c0.47-0.38,1.08-0.82,1.93-1.2c3.41-1.53,1.07-4.03-0.29-5.27
					c-1.36-1.23-3.4-3.47-2.11-4.77c1.6-1.59,3.17,1.5,3.17,1.5s-1.25-1.65-2.24-0.04c-0.99,1.62,1.67,2.89,3.58,2.08
					C56.27,34.92,55.28,22.82,43.64,27.9z"/>
			</g>
			<g>
				<g>
					<path class="st10" d="M51.43,35.67c-1.52-0.07-1.95-1.89-1.98-2.42c-0.08,0.06-0.15,0.11-0.23,0.19
						c-1.29,1.29,0.75,3.54,2.12,4.77c0.86,0.78,2.1,2.05,2.05,3.28C54.87,40.1,52.58,36.77,51.43,35.67z"/>
				</g>
				<g>
					<path class="st10" d="M43.64,27.9l0.37,0.86c8.77-3.25,10.93,3.85,10.41,6.93C56.24,34.67,55.16,22.87,43.64,27.9z"/>
				</g>
			</g>
		</g>
		<g>
			<g>
				<polygon class="st11" points="51.41,70.15 49.19,62.88 56.07,57.36 57.96,65.21 				"/>
			</g>
			<g>
				<polygon class="st12" points="42.69,60.27 45.02,66.66 51.41,70.15 49.19,62.88 				"/>
			</g>
			<g>
				<polygon class="st13" points="56.07,57.36 49.19,54.16 42.69,60.27 49.19,62.88 				"/>
			</g>
		</g>
		<g>
			<g>
				<rect x="63.62" y="38.94" class="st12" width="9.16" height="6.4"/>
			</g>
			<g>
				<rect x="63.62" y="32.54" class="st13" width="9.16" height="6.4"/>
			</g>
		</g>
		<g>
			<g>
				<rect x="23.01" y="57.12" class="st12" width="9.16" height="6.4"/>
			</g>
			<g>
				<rect x="23.01" y="50.72" class="st13" width="9.16" height="6.4"/>
			</g>
		</g>
		<g>
			<g>
				<path class="st1" d="M52.11,45.08c0,2.79-2.27,5.06-5.06,5.06c-2.79,0-5.06-2.27-5.06-5.06c0-2.79,2.27-5.06,5.06-5.06
					C49.84,40.02,52.11,42.29,52.11,45.08z"/>
			</g>
			<g>
				<path class="st14" d="M45.02,44.24c0,0-1.69,0.28-1.01-1.35c0.59-1.44,1.94-1.44,3.04-1.44c1.1,0,3.63,1.17,1.82,2.4
					C47.05,45.08,45.02,44.24,45.02,44.24z"/>
			</g>
			<g>
				<path class="st14" d="M48.68,45.98c0,0,1.68-0.33,1.04,1.32c-0.56,1.45-1.9,1.48-3,1.51c-1.1,0.03-3.66-1.07-1.88-2.35
					C46.63,45.19,48.68,45.98,48.68,45.98z"/>
			</g>
			<g>
				<path class="st1" d="M49.24,45.08c0,1.21-0.98,2.19-2.19,2.19c-1.21,0-2.19-0.98-2.19-2.19c0-1.21,0.98-2.19,2.19-2.19
					C48.26,42.89,49.24,43.87,49.24,45.08z"/>
			</g>
		</g>
		<g>
			<g>
				<path class="st1" d="M64.99,69.81c0,3.12-2.53,5.64-5.64,5.64c-3.12,0-5.64-2.53-5.64-5.64c0-3.12,2.53-5.64,5.64-5.64
					C62.46,64.17,64.99,66.69,64.99,69.81z"/>
			</g>
			<g>
				<path class="st14" d="M57.09,68.87c0,0-1.88,0.31-1.13-1.5c0.66-1.6,2.16-1.6,3.39-1.6c1.22,0,4.04,1.3,2.02,2.67
					S57.09,68.87,57.09,68.87z"/>
			</g>
			<g>
				<path class="st14" d="M61.16,70.81c0,0,1.87-0.36,1.17,1.47c-0.62,1.62-2.12,1.65-3.34,1.69c-1.22,0.03-4.08-1.2-2.09-2.62
					C58.88,69.92,61.16,70.81,61.16,70.81z"/>
			</g>
			<g>
				<path class="st1" d="M61.79,69.81c0,1.35-1.09,2.45-2.44,2.45c-1.35,0-2.45-1.1-2.45-2.45s1.09-2.44,2.45-2.44
					C60.7,67.36,61.79,68.46,61.79,69.81z"/>
			</g>
		</g>
		<g>
			<g>
				<path class="st1" d="M31.03,50.61c0,2.5-2.03,4.53-4.53,4.53c-2.5,0-4.53-2.03-4.53-4.53c0-2.5,2.03-4.53,4.53-4.53
					C29,46.08,31.03,48.11,31.03,50.61z"/>
			</g>
			<g>
				<path class="st14" d="M24.69,49.86c0,0-1.51,0.25-0.9-1.21c0.53-1.29,1.73-1.28,2.71-1.28c0.98,0,3.24,1.04,1.62,2.14
					C26.5,50.61,24.69,49.86,24.69,49.86z"/>
			</g>
			<g>
				<path class="st14" d="M27.96,51.41c0,0,1.5-0.29,0.94,1.18c-0.5,1.3-1.7,1.33-2.68,1.35c-0.98,0.02-3.27-0.96-1.68-2.1
					C26.13,50.7,27.96,51.41,27.96,51.41z"/>
			</g>
			<g>
				<path class="st1" d="M28.47,50.61c0,1.08-0.88,1.96-1.96,1.96s-1.96-0.88-1.96-1.96c0-1.08,0.88-1.96,1.96-1.96
					S28.47,49.53,28.47,50.61z"/>
			</g>
		</g>
		<g>
			<g>
				<polygon class="st12" points="36.71,40.35 38.45,33.59 34.96,28.57 33,34.46 				"/>
			</g>
			<g>
				<polygon class="st11" points="45.21,40.35 36.71,40.35 38.45,33.59 46.96,33.59 				"/>
			</g>
			<g>
				<polygon class="st13" points="34.96,28.57 43.47,28.57 46.96,33.59 38.45,33.59 				"/>
			</g>
		</g>
	</g>
</g>
</svg>
